G04*
G04 #@! TF.GenerationSoftware,Altium Limited,Altium Designer,18.1.9 (240)*
G04*
G04 Layer_Color=65535*
%FSLAX25Y25*%
%MOIN*%
G70*
G01*
G75*
%ADD10C,0.01000*%
D10*
X631000Y88000D02*
X631976Y88096D01*
X632913Y88381D01*
X633778Y88843D01*
X634536Y89464D01*
X635157Y90222D01*
X635619Y91087D01*
X635904Y92024D01*
X636000Y93000D01*
X636023Y277500D02*
X635939Y278459D01*
X635690Y279389D01*
X635283Y280261D01*
X634731Y281050D01*
X634050Y281731D01*
X633261Y282283D01*
X632389Y282690D01*
X631459Y282939D01*
X630500Y283023D01*
X474000Y93000D02*
X474096Y92024D01*
X474381Y91087D01*
X474843Y90222D01*
X475464Y89464D01*
X476222Y88843D01*
X477087Y88381D01*
X478024Y88096D01*
X479000Y88000D01*
Y283000D02*
X478024Y282904D01*
X477087Y282619D01*
X476222Y282157D01*
X475464Y281536D01*
X474843Y280778D01*
X474381Y279913D01*
X474096Y278976D01*
X474000Y278000D01*
X478189Y126398D02*
Y253406D01*
Y126398D02*
X535059D01*
X540394Y126417D02*
Y134311D01*
X540374Y126398D02*
X540394Y126417D01*
X535059Y126398D02*
X540374D01*
X540394Y268051D02*
X540394Y134311D01*
X478287Y268051D02*
X540394D01*
X478189Y267953D02*
X478287Y268051D01*
X478189Y253406D02*
Y267953D01*
X549882Y217520D02*
X560118D01*
Y247835D01*
X549882D02*
X560118D01*
X549882Y217520D02*
Y247835D01*
X631811Y141201D02*
Y268209D01*
X574941D02*
X631811D01*
X569606Y260295D02*
Y268189D01*
X569626Y268209D01*
X574941D01*
X569606Y126555D02*
Y260295D01*
Y126555D02*
X631713D01*
X631811Y126654D01*
Y141201D01*
X549882Y145803D02*
X560118D01*
Y176118D01*
X549882D02*
X560118D01*
X549882Y145803D02*
Y176118D01*
X636000Y277500D02*
X636000Y93000D01*
X479000Y283000D02*
X630500D01*
X479000Y88000D02*
X631000D01*
X474000Y93000D02*
Y278000D01*
X554399Y256315D02*
X553399Y257315D01*
X551400D01*
X550400Y256315D01*
Y252316D01*
X551400Y251317D01*
X553399D01*
X554399Y252316D01*
X560397Y251317D02*
X556398D01*
X560397Y255315D01*
Y256315D01*
X559397Y257315D01*
X557398D01*
X556398Y256315D01*
X554349Y184663D02*
X553349Y185663D01*
X551350D01*
X550350Y184663D01*
Y180665D01*
X551350Y179665D01*
X553349D01*
X554349Y180665D01*
X556348Y179665D02*
X558347D01*
X557348D01*
Y185663D01*
X556348Y184663D01*
M02*
