G04*
G04 #@! TF.GenerationSoftware,Altium Limited,Altium Designer,18.1.9 (240)*
G04*
G04 Layer_Physical_Order=2*
G04 Layer_Color=16711680*
%FSLAX25Y25*%
%MOIN*%
G70*
G01*
G75*
%ADD16C,0.01800*%
%ADD17C,0.05512*%
%ADD18O,0.11024X0.13780*%
%ADD19C,0.14886*%
%ADD20C,0.07874*%
%ADD21C,0.05000*%
G36*
X635000Y281000D02*
X636000Y279000D01*
Y91000D01*
X633000Y88000D01*
X477000D01*
X475500Y89500D01*
X474000Y92000D01*
Y278000D01*
X475000Y281000D01*
X477000Y283000D01*
X633000D01*
X635000Y281000D01*
D02*
G37*
%LPC*%
G36*
X513465Y268216D02*
X512188Y268091D01*
X510961Y267718D01*
X509829Y267114D01*
X508838Y266300D01*
X508024Y265308D01*
X507419Y264177D01*
X507047Y262950D01*
X506921Y261673D01*
Y258917D01*
X506984Y258279D01*
X506503Y258119D01*
X505448Y259404D01*
X504162Y260460D01*
X502695Y261244D01*
X501104Y261726D01*
X499449Y261889D01*
X497794Y261726D01*
X496202Y261244D01*
X494735Y260460D01*
X493450Y259404D01*
X492395Y258119D01*
X491611Y256652D01*
X491128Y255061D01*
X490965Y253406D01*
X491128Y251750D01*
X491611Y250159D01*
X492395Y248692D01*
X493450Y247407D01*
X494735Y246352D01*
X496202Y245568D01*
X497794Y245085D01*
X499449Y244922D01*
X501104Y245085D01*
X502695Y245568D01*
X504162Y246352D01*
X505448Y247407D01*
X506503Y248692D01*
X507287Y250159D01*
X507769Y251750D01*
X507933Y253406D01*
X507798Y254769D01*
X508281Y254969D01*
X508838Y254290D01*
X509829Y253477D01*
X510961Y252872D01*
X512188Y252500D01*
X513465Y252374D01*
X514741Y252500D01*
X515969Y252872D01*
X517100Y253477D01*
X518091Y254290D01*
X518905Y255282D01*
X519510Y256413D01*
X519882Y257641D01*
X520008Y258917D01*
Y261673D01*
X519882Y262950D01*
X519510Y264177D01*
X518905Y265308D01*
X518091Y266300D01*
X517100Y267114D01*
X515969Y267718D01*
X514741Y268091D01*
X513465Y268216D01*
D02*
G37*
G36*
X596535D02*
X595259Y268091D01*
X594031Y267718D01*
X592900Y267114D01*
X591909Y266300D01*
X591095Y265308D01*
X590490Y264177D01*
X590118Y262950D01*
X589992Y261673D01*
Y258917D01*
X590118Y257641D01*
X590490Y256413D01*
X591095Y255282D01*
X591909Y254290D01*
X592900Y253477D01*
X594031Y252872D01*
X595259Y252500D01*
X596535Y252374D01*
X597812Y252500D01*
X599039Y252872D01*
X600171Y253477D01*
X601162Y254290D01*
X601719Y254969D01*
X602202Y254769D01*
X602068Y253406D01*
X602231Y251750D01*
X602713Y250159D01*
X603497Y248692D01*
X604552Y247407D01*
X605838Y246352D01*
X607305Y245568D01*
X608896Y245085D01*
X610551Y244922D01*
X612206Y245085D01*
X613798Y245568D01*
X615265Y246352D01*
X616550Y247407D01*
X617605Y248692D01*
X618389Y250159D01*
X618872Y251750D01*
X619035Y253406D01*
X618872Y255061D01*
X618389Y256652D01*
X617605Y258119D01*
X616550Y259404D01*
X615265Y260460D01*
X613798Y261244D01*
X612206Y261726D01*
X610551Y261889D01*
X608896Y261726D01*
X607305Y261244D01*
X605838Y260460D01*
X604552Y259404D01*
X603497Y258119D01*
X603016Y258279D01*
X603079Y258917D01*
Y261673D01*
X602953Y262950D01*
X602581Y264177D01*
X601976Y265308D01*
X601162Y266300D01*
X600171Y267114D01*
X599039Y267718D01*
X597812Y268091D01*
X596535Y268216D01*
D02*
G37*
G36*
X574000Y261937D02*
X534000D01*
X533259Y261790D01*
X532630Y261370D01*
X528630Y257370D01*
X528210Y256741D01*
X528063Y256000D01*
Y238802D01*
X525883Y236622D01*
X520256D01*
X519687Y237364D01*
X518902Y237966D01*
X517988Y238344D01*
X517314Y238433D01*
X517195Y238449D01*
Y238953D01*
X517314Y238969D01*
X517988Y239057D01*
X518902Y239436D01*
X519687Y240038D01*
X520289Y240822D01*
X520667Y241736D01*
X520796Y242717D01*
X520667Y243697D01*
X520289Y244611D01*
X519687Y245395D01*
X518902Y245997D01*
X517988Y246376D01*
X517008Y246505D01*
X516027Y246376D01*
X515114Y245997D01*
X514329Y245395D01*
X513727Y244611D01*
X513349Y243697D01*
X513219Y242717D01*
X513349Y241736D01*
X513727Y240822D01*
X514329Y240038D01*
X515114Y239436D01*
X516027Y239057D01*
X516702Y238969D01*
X516820Y238953D01*
Y238449D01*
X516702Y238433D01*
X516027Y238344D01*
X515114Y237966D01*
X514329Y237364D01*
X513727Y236579D01*
X513349Y235665D01*
X513219Y234685D01*
X513349Y233704D01*
X513727Y232791D01*
X514329Y232006D01*
X515114Y231404D01*
X516027Y231026D01*
X516702Y230937D01*
X516820Y230921D01*
Y230417D01*
X516702Y230402D01*
X516027Y230313D01*
X515114Y229934D01*
X514329Y229332D01*
X513727Y228548D01*
X513349Y227634D01*
X513219Y226654D01*
X513349Y225673D01*
X513727Y224759D01*
X514329Y223975D01*
X515114Y223373D01*
X516027Y222994D01*
X516702Y222906D01*
X516820Y222890D01*
Y222386D01*
X516702Y222370D01*
X516027Y222281D01*
X515114Y221903D01*
X514329Y221301D01*
X513727Y220516D01*
X513349Y219602D01*
X513219Y218622D01*
X513349Y217641D01*
X513727Y216728D01*
X514329Y215943D01*
X515114Y215341D01*
X516027Y214963D01*
X517008Y214834D01*
X517988Y214963D01*
X518902Y215341D01*
X519687Y215943D01*
X520289Y216728D01*
X520667Y217641D01*
X520796Y218622D01*
X520667Y219602D01*
X520289Y220516D01*
X519687Y221301D01*
X518902Y221903D01*
X517988Y222281D01*
X517314Y222370D01*
X517195Y222386D01*
Y222890D01*
X517314Y222906D01*
X517988Y222994D01*
X518902Y223373D01*
X519687Y223975D01*
X520289Y224759D01*
X520667Y225673D01*
X520796Y226654D01*
X520667Y227634D01*
X520289Y228548D01*
X519687Y229332D01*
X518902Y229934D01*
X517988Y230313D01*
X517313Y230402D01*
X517196Y230417D01*
Y230921D01*
X517313Y230937D01*
X517988Y231026D01*
X518902Y231404D01*
X519687Y232006D01*
X520256Y232748D01*
X526685D01*
X527426Y232895D01*
X528055Y233315D01*
X531370Y236630D01*
X531790Y237259D01*
X531937Y238000D01*
Y255198D01*
X534802Y258063D01*
X573198D01*
X578063Y253198D01*
Y227000D01*
X578210Y226259D01*
X578630Y225630D01*
X582992Y221268D01*
X583621Y220848D01*
X584362Y220701D01*
X589745D01*
X590313Y219959D01*
X591098Y219357D01*
X592012Y218979D01*
X592687Y218890D01*
X592804Y218874D01*
Y218370D01*
X592687Y218355D01*
X592012Y218266D01*
X591098Y217887D01*
X590313Y217285D01*
X589745Y216544D01*
X578196D01*
X575937Y218802D01*
Y237000D01*
X575790Y237741D01*
X575370Y238370D01*
X569653Y244086D01*
X569025Y244506D01*
X568283Y244654D01*
X559541D01*
X559312Y245206D01*
X558521Y246238D01*
X557490Y247029D01*
X556289Y247527D01*
X555000Y247696D01*
X553711Y247527D01*
X552510Y247029D01*
X551479Y246238D01*
X550688Y245206D01*
X550190Y244005D01*
X550020Y242717D01*
X550190Y241428D01*
X550688Y240227D01*
X551479Y239195D01*
X552510Y238404D01*
X553711Y237907D01*
X555000Y237737D01*
X556289Y237907D01*
X557490Y238404D01*
X558521Y239195D01*
X559312Y240227D01*
X559541Y240779D01*
X567481D01*
X572063Y236198D01*
Y218000D01*
X572210Y217259D01*
X572630Y216630D01*
X576024Y213237D01*
X576652Y212817D01*
X577394Y212669D01*
X589745D01*
X590313Y211928D01*
X591098Y211326D01*
X592012Y210947D01*
X592992Y210818D01*
X593973Y210947D01*
X594886Y211326D01*
X595671Y211928D01*
X596273Y212712D01*
X596651Y213626D01*
X596780Y214606D01*
X596651Y215587D01*
X596273Y216501D01*
X595671Y217285D01*
X594886Y217887D01*
X593973Y218266D01*
X593298Y218355D01*
X593180Y218370D01*
Y218874D01*
X593298Y218890D01*
X593973Y218979D01*
X594886Y219357D01*
X595671Y219959D01*
X596273Y220744D01*
X596651Y221657D01*
X596780Y222638D01*
X596651Y223618D01*
X596273Y224532D01*
X595671Y225317D01*
X594886Y225919D01*
X593973Y226297D01*
X593298Y226386D01*
X593180Y226401D01*
Y226906D01*
X593298Y226921D01*
X593973Y227010D01*
X594886Y227389D01*
X595671Y227991D01*
X596273Y228775D01*
X596651Y229689D01*
X596780Y230669D01*
X596651Y231650D01*
X596273Y232564D01*
X595671Y233348D01*
X594886Y233950D01*
X593973Y234329D01*
X593298Y234418D01*
X593180Y234433D01*
Y234937D01*
X593298Y234953D01*
X593973Y235042D01*
X594886Y235420D01*
X595671Y236022D01*
X596273Y236807D01*
X596651Y237720D01*
X596780Y238701D01*
X596651Y239681D01*
X596273Y240595D01*
X595671Y241379D01*
X594886Y241982D01*
X593973Y242360D01*
X592992Y242489D01*
X592012Y242360D01*
X591098Y241982D01*
X590313Y241379D01*
X589711Y240595D01*
X589333Y239681D01*
X589204Y238701D01*
X589333Y237720D01*
X589711Y236807D01*
X590313Y236022D01*
X591098Y235420D01*
X592012Y235042D01*
X592687Y234953D01*
X592804Y234937D01*
Y234433D01*
X592687Y234418D01*
X592012Y234329D01*
X591098Y233950D01*
X590313Y233348D01*
X589711Y232564D01*
X589333Y231650D01*
X589204Y230669D01*
X589333Y229689D01*
X589711Y228775D01*
X590313Y227991D01*
X591098Y227389D01*
X592012Y227010D01*
X592686Y226921D01*
X592805Y226906D01*
Y226401D01*
X592686Y226386D01*
X592012Y226297D01*
X591098Y225919D01*
X590313Y225317D01*
X589745Y224575D01*
X585165D01*
X581937Y227802D01*
Y254000D01*
X581790Y254741D01*
X581370Y255370D01*
X575370Y261370D01*
X574741Y261790D01*
X574000Y261937D01*
D02*
G37*
G36*
X600000Y246505D02*
X599019Y246376D01*
X598106Y245997D01*
X597321Y245395D01*
X596719Y244611D01*
X596341Y243697D01*
X596212Y242717D01*
X596341Y241736D01*
X596719Y240822D01*
X597321Y240038D01*
X598106Y239436D01*
X599019Y239057D01*
X599694Y238969D01*
X599813Y238953D01*
Y238449D01*
X599694Y238433D01*
X599019Y238344D01*
X598106Y237966D01*
X597321Y237364D01*
X596719Y236579D01*
X596341Y235665D01*
X596212Y234685D01*
X596341Y233704D01*
X596719Y232791D01*
X597321Y232006D01*
X598106Y231404D01*
X599019Y231026D01*
X599694Y230937D01*
X599812Y230921D01*
Y230417D01*
X599694Y230402D01*
X599019Y230313D01*
X598106Y229934D01*
X597321Y229332D01*
X596719Y228548D01*
X596341Y227634D01*
X596212Y226654D01*
X596341Y225673D01*
X596719Y224759D01*
X597321Y223975D01*
X598106Y223373D01*
X599019Y222994D01*
X599694Y222906D01*
X599813Y222890D01*
Y222386D01*
X599694Y222370D01*
X599019Y222281D01*
X598106Y221903D01*
X597321Y221301D01*
X596719Y220516D01*
X596341Y219602D01*
X596212Y218622D01*
X596341Y217641D01*
X596719Y216728D01*
X597321Y215943D01*
X598063Y215374D01*
Y211802D01*
X595198Y208937D01*
X559802D01*
X556937Y211802D01*
Y218490D01*
X557490Y218719D01*
X558521Y219510D01*
X559312Y220542D01*
X559810Y221743D01*
X559980Y223032D01*
X559810Y224320D01*
X559312Y225521D01*
X558521Y226553D01*
X557490Y227344D01*
X556289Y227841D01*
X555000Y228011D01*
X553711Y227841D01*
X552510Y227344D01*
X551479Y226553D01*
X550688Y225521D01*
X550190Y224320D01*
X550020Y223032D01*
X550190Y221743D01*
X550688Y220542D01*
X551479Y219510D01*
X552510Y218719D01*
X553063Y218490D01*
Y211000D01*
X553210Y210259D01*
X553630Y209630D01*
X557630Y205630D01*
X558259Y205210D01*
X559000Y205063D01*
X596000D01*
X596741Y205210D01*
X597370Y205630D01*
X601370Y209630D01*
X601790Y210259D01*
X601937Y211000D01*
Y215374D01*
X602679Y215943D01*
X603281Y216728D01*
X603659Y217641D01*
X603788Y218622D01*
X603659Y219602D01*
X603281Y220516D01*
X602679Y221301D01*
X601894Y221903D01*
X600981Y222281D01*
X600306Y222370D01*
X600187Y222386D01*
Y222890D01*
X600306Y222906D01*
X600981Y222994D01*
X601894Y223373D01*
X602679Y223975D01*
X603281Y224759D01*
X603659Y225673D01*
X603788Y226654D01*
X603659Y227634D01*
X603281Y228548D01*
X602679Y229332D01*
X601894Y229934D01*
X600981Y230313D01*
X600306Y230402D01*
X600188Y230417D01*
Y230921D01*
X600306Y230937D01*
X600981Y231026D01*
X601894Y231404D01*
X602679Y232006D01*
X603248Y232748D01*
X609513D01*
X612063Y230198D01*
Y205802D01*
X609198Y202937D01*
X507802D01*
X503937Y206802D01*
Y219198D01*
X505440Y220701D01*
X506752D01*
X507321Y219959D01*
X508106Y219357D01*
X509020Y218979D01*
X509694Y218890D01*
X509812Y218874D01*
Y218370D01*
X509694Y218355D01*
X509020Y218266D01*
X508106Y217887D01*
X507321Y217285D01*
X506719Y216501D01*
X506341Y215587D01*
X506212Y214606D01*
X506341Y213626D01*
X506719Y212712D01*
X507321Y211928D01*
X508106Y211326D01*
X509020Y210947D01*
X510000Y210818D01*
X510981Y210947D01*
X511894Y211326D01*
X512679Y211928D01*
X513281Y212712D01*
X513659Y213626D01*
X513788Y214606D01*
X513659Y215587D01*
X513281Y216501D01*
X512679Y217285D01*
X511894Y217887D01*
X510981Y218266D01*
X510306Y218355D01*
X510188Y218370D01*
Y218874D01*
X510306Y218890D01*
X510981Y218979D01*
X511894Y219357D01*
X512679Y219959D01*
X513281Y220744D01*
X513659Y221657D01*
X513788Y222638D01*
X513659Y223618D01*
X513281Y224532D01*
X512679Y225317D01*
X511894Y225919D01*
X510981Y226297D01*
X510306Y226386D01*
X510187Y226401D01*
Y226906D01*
X510306Y226921D01*
X510981Y227010D01*
X511894Y227389D01*
X512679Y227991D01*
X513281Y228775D01*
X513659Y229689D01*
X513788Y230669D01*
X513659Y231650D01*
X513281Y232564D01*
X512679Y233348D01*
X511894Y233950D01*
X510981Y234329D01*
X510306Y234418D01*
X510188Y234433D01*
Y234937D01*
X510306Y234953D01*
X510981Y235042D01*
X511894Y235420D01*
X512679Y236022D01*
X513281Y236807D01*
X513659Y237720D01*
X513788Y238701D01*
X513659Y239681D01*
X513281Y240595D01*
X512679Y241379D01*
X511894Y241982D01*
X510981Y242360D01*
X510000Y242489D01*
X509020Y242360D01*
X508106Y241982D01*
X507321Y241379D01*
X506719Y240595D01*
X506341Y239681D01*
X506212Y238701D01*
X506341Y237720D01*
X506719Y236807D01*
X507321Y236022D01*
X508106Y235420D01*
X509020Y235042D01*
X509694Y234953D01*
X509812Y234937D01*
Y234433D01*
X509694Y234418D01*
X509020Y234329D01*
X508106Y233950D01*
X507321Y233348D01*
X506719Y232564D01*
X506341Y231650D01*
X506212Y230669D01*
X506341Y229689D01*
X506719Y228775D01*
X507321Y227991D01*
X508106Y227389D01*
X509020Y227010D01*
X509694Y226921D01*
X509813Y226906D01*
Y226401D01*
X509694Y226386D01*
X509020Y226297D01*
X508106Y225919D01*
X507321Y225317D01*
X506752Y224575D01*
X504638D01*
X503897Y224428D01*
X503268Y224008D01*
X500630Y221370D01*
X500210Y220741D01*
X500063Y220000D01*
Y206000D01*
X500210Y205259D01*
X500630Y204630D01*
X505630Y199630D01*
X506259Y199210D01*
X507000Y199063D01*
X610000D01*
X610741Y199210D01*
X611370Y199630D01*
X615370Y203630D01*
X615790Y204259D01*
X615937Y205000D01*
Y231000D01*
X615790Y231741D01*
X615370Y232370D01*
X611685Y236055D01*
X611056Y236475D01*
X610315Y236622D01*
X603248D01*
X602679Y237364D01*
X601894Y237966D01*
X600981Y238344D01*
X600306Y238433D01*
X600187Y238449D01*
Y238953D01*
X600306Y238969D01*
X600981Y239057D01*
X601894Y239436D01*
X602679Y240038D01*
X603281Y240822D01*
X603659Y241736D01*
X603788Y242717D01*
X603659Y243697D01*
X603281Y244611D01*
X602679Y245395D01*
X601894Y245997D01*
X600981Y246376D01*
X600000Y246505D01*
D02*
G37*
G36*
X610551Y149685D02*
X608896Y149522D01*
X607305Y149039D01*
X605838Y148255D01*
X604552Y147200D01*
X603497Y145914D01*
X602713Y144447D01*
X602231Y142856D01*
X602068Y141201D01*
X602202Y139837D01*
X601719Y139637D01*
X601162Y140316D01*
X600171Y141130D01*
X599039Y141734D01*
X597812Y142106D01*
X596535Y142232D01*
X595259Y142106D01*
X594031Y141734D01*
X592900Y141130D01*
X591909Y140316D01*
X591095Y139324D01*
X590490Y138193D01*
X590118Y136966D01*
X589992Y135689D01*
Y132933D01*
X590118Y131657D01*
X590490Y130429D01*
X591095Y129298D01*
X591909Y128306D01*
X592900Y127492D01*
X594031Y126888D01*
X595259Y126515D01*
X596535Y126390D01*
X597812Y126515D01*
X599039Y126888D01*
X600171Y127492D01*
X601162Y128306D01*
X601976Y129298D01*
X602581Y130429D01*
X602953Y131657D01*
X603079Y132933D01*
Y135689D01*
X603016Y136327D01*
X603497Y136487D01*
X604552Y135202D01*
X605838Y134147D01*
X607305Y133363D01*
X608896Y132880D01*
X610551Y132717D01*
X612206Y132880D01*
X613798Y133363D01*
X615265Y134147D01*
X616550Y135202D01*
X617605Y136487D01*
X618389Y137954D01*
X618872Y139546D01*
X619035Y141201D01*
X618872Y142856D01*
X618389Y144447D01*
X617605Y145914D01*
X616550Y147200D01*
X615265Y148255D01*
X613798Y149039D01*
X612206Y149522D01*
X610551Y149685D01*
D02*
G37*
G36*
X499449D02*
X497794Y149522D01*
X496202Y149039D01*
X494735Y148255D01*
X493450Y147200D01*
X492395Y145914D01*
X491611Y144447D01*
X491128Y142856D01*
X490965Y141201D01*
X491128Y139546D01*
X491611Y137954D01*
X492395Y136487D01*
X493450Y135202D01*
X494735Y134147D01*
X496202Y133363D01*
X497794Y132880D01*
X499449Y132717D01*
X501104Y132880D01*
X502695Y133363D01*
X504162Y134147D01*
X505448Y135202D01*
X506503Y136487D01*
X506984Y136327D01*
X506921Y135689D01*
Y132933D01*
X507047Y131657D01*
X507419Y130429D01*
X508024Y129298D01*
X508838Y128306D01*
X509829Y127492D01*
X510961Y126888D01*
X512188Y126515D01*
X513465Y126390D01*
X514741Y126515D01*
X515969Y126888D01*
X517100Y127492D01*
X518091Y128306D01*
X518905Y129298D01*
X519510Y130429D01*
X519882Y131657D01*
X520008Y132933D01*
Y135689D01*
X519882Y136966D01*
X519510Y138193D01*
X518905Y139324D01*
X518091Y140316D01*
X517100Y141130D01*
X515969Y141734D01*
X514741Y142106D01*
X513465Y142232D01*
X512188Y142106D01*
X510961Y141734D01*
X509829Y141130D01*
X508838Y140316D01*
X508281Y139637D01*
X507798Y139837D01*
X507933Y141201D01*
X507769Y142856D01*
X507287Y144447D01*
X506503Y145914D01*
X505448Y147200D01*
X504162Y148255D01*
X502695Y149039D01*
X501104Y149522D01*
X499449Y149685D01*
D02*
G37*
G36*
X594000Y193937D02*
X508000D01*
X507259Y193790D01*
X506630Y193370D01*
X501630Y188370D01*
X501210Y187741D01*
X501063Y187000D01*
Y164000D01*
X501210Y163259D01*
X501630Y162630D01*
X505709Y158551D01*
X506337Y158131D01*
X506706Y158058D01*
X506719Y158027D01*
X507321Y157243D01*
X508106Y156640D01*
X509020Y156262D01*
X509694Y156173D01*
X509812Y156158D01*
Y155653D01*
X509694Y155638D01*
X509020Y155549D01*
X508106Y155171D01*
X507321Y154569D01*
X506719Y153784D01*
X506341Y152870D01*
X506212Y151890D01*
X506341Y150909D01*
X506719Y149996D01*
X507321Y149211D01*
X508106Y148609D01*
X509020Y148231D01*
X510000Y148101D01*
X510981Y148231D01*
X511894Y148609D01*
X512679Y149211D01*
X513281Y149996D01*
X513659Y150909D01*
X513788Y151890D01*
X513659Y152870D01*
X513281Y153784D01*
X512679Y154569D01*
X511894Y155171D01*
X510981Y155549D01*
X510306Y155638D01*
X510188Y155653D01*
Y156158D01*
X510306Y156173D01*
X510981Y156262D01*
X511894Y156640D01*
X512679Y157243D01*
X513281Y158027D01*
X513659Y158941D01*
X513788Y159921D01*
X513659Y160902D01*
X513281Y161815D01*
X512679Y162600D01*
X511894Y163202D01*
X510981Y163580D01*
X510306Y163669D01*
X510187Y163685D01*
Y164189D01*
X510306Y164205D01*
X510981Y164294D01*
X511894Y164672D01*
X512679Y165274D01*
X513281Y166059D01*
X513659Y166972D01*
X513788Y167953D01*
X513659Y168933D01*
X513281Y169847D01*
X512679Y170632D01*
X511894Y171234D01*
X510981Y171612D01*
X510306Y171701D01*
X510188Y171716D01*
Y172221D01*
X510306Y172236D01*
X510981Y172325D01*
X511894Y172703D01*
X512679Y173305D01*
X513281Y174090D01*
X513659Y175004D01*
X513788Y175984D01*
X513659Y176965D01*
X513281Y177878D01*
X512679Y178663D01*
X511937Y179232D01*
Y184198D01*
X512802Y185063D01*
X551198D01*
X553063Y183198D01*
Y175541D01*
X552510Y175312D01*
X551479Y174521D01*
X550688Y173490D01*
X550190Y172289D01*
X550020Y171000D01*
X550190Y169711D01*
X550688Y168510D01*
X551479Y167479D01*
X552510Y166688D01*
X553711Y166190D01*
X555000Y166020D01*
X556289Y166190D01*
X557490Y166688D01*
X558521Y167479D01*
X559312Y168510D01*
X559541Y169063D01*
X560198D01*
X562677Y166583D01*
X563306Y166163D01*
X564047Y166016D01*
X573075D01*
X573504Y165457D01*
X574235Y164896D01*
X575086Y164543D01*
X576000Y164423D01*
X576914Y164543D01*
X577765Y164896D01*
X578496Y165457D01*
X578925Y166016D01*
X589745D01*
X590313Y165274D01*
X591098Y164672D01*
X592012Y164294D01*
X592686Y164205D01*
X592805Y164189D01*
Y163685D01*
X592686Y163669D01*
X592012Y163580D01*
X591098Y163202D01*
X590313Y162600D01*
X590234Y162496D01*
X583287D01*
X582858Y163055D01*
X582127Y163616D01*
X581276Y163969D01*
X580362Y164089D01*
X579449Y163969D01*
X578597Y163616D01*
X577866Y163055D01*
X577305Y162324D01*
X576952Y161473D01*
X576832Y160559D01*
X576952Y159645D01*
X577305Y158794D01*
X577866Y158063D01*
X578597Y157502D01*
X579449Y157149D01*
X580362Y157029D01*
X581276Y157149D01*
X582127Y157502D01*
X582858Y158063D01*
X583287Y158622D01*
X589465D01*
X589711Y158027D01*
X590313Y157243D01*
X591098Y156640D01*
X592012Y156262D01*
X592687Y156173D01*
X592804Y156158D01*
Y155653D01*
X592687Y155638D01*
X592012Y155549D01*
X591098Y155171D01*
X590313Y154569D01*
X589711Y153784D01*
X589333Y152870D01*
X589204Y151890D01*
X589333Y150909D01*
X589711Y149996D01*
X590313Y149211D01*
X591098Y148609D01*
X592012Y148231D01*
X592992Y148101D01*
X593973Y148231D01*
X594886Y148609D01*
X595671Y149211D01*
X596273Y149996D01*
X596651Y150909D01*
X596780Y151890D01*
X596651Y152870D01*
X596273Y153784D01*
X595671Y154569D01*
X594886Y155171D01*
X593973Y155549D01*
X593298Y155638D01*
X593180Y155653D01*
Y156158D01*
X593298Y156173D01*
X593973Y156262D01*
X594886Y156640D01*
X595671Y157243D01*
X596273Y158027D01*
X596651Y158941D01*
X596780Y159921D01*
X596651Y160902D01*
X596273Y161815D01*
X595671Y162600D01*
X594886Y163202D01*
X593973Y163580D01*
X593298Y163669D01*
X593180Y163685D01*
Y164189D01*
X593298Y164205D01*
X593973Y164294D01*
X594886Y164672D01*
X595671Y165274D01*
X596273Y166059D01*
X596651Y166972D01*
X596780Y167953D01*
X596651Y168933D01*
X596273Y169847D01*
X595671Y170632D01*
X594886Y171234D01*
X593973Y171612D01*
X593298Y171701D01*
X593180Y171716D01*
Y172221D01*
X593298Y172236D01*
X593973Y172325D01*
X594886Y172703D01*
X595671Y173305D01*
X596273Y174090D01*
X596651Y175004D01*
X596780Y175984D01*
X596651Y176965D01*
X596273Y177878D01*
X595671Y178663D01*
X594886Y179265D01*
X593973Y179643D01*
X592992Y179772D01*
X592012Y179643D01*
X591098Y179265D01*
X590313Y178663D01*
X589757Y177937D01*
X573925D01*
X573496Y178496D01*
X572765Y179057D01*
X571914Y179410D01*
X571000Y179530D01*
X570086Y179410D01*
X569235Y179057D01*
X568504Y178496D01*
X567943Y177765D01*
X567590Y176914D01*
X567470Y176000D01*
X567590Y175086D01*
X567943Y174235D01*
X568504Y173504D01*
X569235Y172943D01*
X570086Y172590D01*
X571000Y172470D01*
X571914Y172590D01*
X572765Y172943D01*
X573496Y173504D01*
X573925Y174063D01*
X589732D01*
X590313Y173305D01*
X591098Y172703D01*
X592012Y172325D01*
X592687Y172236D01*
X592804Y172221D01*
Y171716D01*
X592687Y171701D01*
X592012Y171612D01*
X591098Y171234D01*
X590313Y170632D01*
X589745Y169890D01*
X578925D01*
X578496Y170449D01*
X577765Y171010D01*
X576914Y171363D01*
X576000Y171483D01*
X575086Y171363D01*
X574235Y171010D01*
X573504Y170449D01*
X573075Y169890D01*
X564850D01*
X562370Y172370D01*
X561741Y172790D01*
X561000Y172937D01*
X559541D01*
X559312Y173490D01*
X558521Y174521D01*
X557490Y175312D01*
X556937Y175541D01*
Y184000D01*
X556790Y184741D01*
X556370Y185370D01*
X553370Y188370D01*
X552741Y188790D01*
X552000Y188937D01*
X512000D01*
X511259Y188790D01*
X510630Y188370D01*
X508630Y186370D01*
X508210Y185741D01*
X508063Y185000D01*
Y179232D01*
X507321Y178663D01*
X506719Y177878D01*
X506341Y176965D01*
X506212Y175984D01*
X506341Y175004D01*
X506719Y174090D01*
X507321Y173305D01*
X508106Y172703D01*
X509020Y172325D01*
X509694Y172236D01*
X509812Y172221D01*
Y171716D01*
X509694Y171701D01*
X509020Y171612D01*
X508106Y171234D01*
X507321Y170632D01*
X506719Y169847D01*
X506341Y168933D01*
X506212Y167953D01*
X506341Y166972D01*
X506719Y166059D01*
X507321Y165274D01*
X508106Y164672D01*
X509020Y164294D01*
X509694Y164205D01*
X509813Y164189D01*
Y163685D01*
X509694Y163669D01*
X509020Y163580D01*
X508106Y163202D01*
X507321Y162600D01*
X507151Y162589D01*
X504937Y164802D01*
Y186198D01*
X508802Y190063D01*
X593198D01*
X598063Y185198D01*
Y183248D01*
X597321Y182679D01*
X596719Y181894D01*
X596341Y180981D01*
X596212Y180000D01*
X596341Y179019D01*
X596719Y178106D01*
X597321Y177321D01*
X598106Y176719D01*
X599019Y176341D01*
X599694Y176252D01*
X599812Y176236D01*
Y175732D01*
X599694Y175717D01*
X599019Y175628D01*
X598106Y175249D01*
X597321Y174647D01*
X596719Y173863D01*
X596341Y172949D01*
X596212Y171969D01*
X596341Y170988D01*
X596719Y170074D01*
X597321Y169290D01*
X598106Y168688D01*
X599019Y168309D01*
X599694Y168221D01*
X599813Y168205D01*
Y167701D01*
X599694Y167685D01*
X599019Y167596D01*
X598106Y167218D01*
X597321Y166616D01*
X596719Y165831D01*
X596341Y164918D01*
X596212Y163937D01*
X596341Y162957D01*
X596719Y162043D01*
X597321Y161258D01*
X598106Y160656D01*
X599019Y160278D01*
X599694Y160189D01*
X599812Y160173D01*
Y159669D01*
X599694Y159654D01*
X599019Y159565D01*
X598106Y159186D01*
X597321Y158584D01*
X596719Y157800D01*
X596341Y156886D01*
X596212Y155906D01*
X596341Y154925D01*
X596719Y154011D01*
X597321Y153227D01*
X598106Y152625D01*
X599019Y152246D01*
X600000Y152117D01*
X600981Y152246D01*
X601894Y152625D01*
X602679Y153227D01*
X603281Y154011D01*
X603659Y154925D01*
X603788Y155906D01*
X603659Y156886D01*
X603281Y157800D01*
X602679Y158584D01*
X601894Y159186D01*
X600981Y159565D01*
X600306Y159654D01*
X600188Y159669D01*
Y160173D01*
X600306Y160189D01*
X600981Y160278D01*
X601894Y160656D01*
X602679Y161258D01*
X603248Y162000D01*
X614075D01*
X614504Y161441D01*
X615235Y160880D01*
X616086Y160527D01*
X617000Y160407D01*
X617914Y160527D01*
X618765Y160880D01*
X619496Y161441D01*
X619925Y162000D01*
X621544D01*
X624063Y159481D01*
Y129802D01*
X618198Y123937D01*
X562802D01*
X556937Y129802D01*
Y146774D01*
X557490Y147002D01*
X558521Y147794D01*
X559312Y148825D01*
X559810Y150026D01*
X559980Y151315D01*
X559810Y152604D01*
X559312Y153805D01*
X558521Y154836D01*
X557490Y155627D01*
X556289Y156125D01*
X555000Y156295D01*
X553711Y156125D01*
X552510Y155627D01*
X551479Y154836D01*
X550688Y153805D01*
X550459Y153252D01*
X547487D01*
X543937Y156802D01*
Y176000D01*
X543790Y176741D01*
X543370Y177370D01*
X539370Y181370D01*
X538741Y181790D01*
X538000Y181937D01*
X520256D01*
X519687Y182679D01*
X518902Y183281D01*
X517988Y183659D01*
X517008Y183788D01*
X516027Y183659D01*
X515114Y183281D01*
X514329Y182679D01*
X513727Y181894D01*
X513349Y180981D01*
X513219Y180000D01*
X513349Y179019D01*
X513727Y178106D01*
X514329Y177321D01*
X515114Y176719D01*
X516027Y176341D01*
X516702Y176252D01*
X516820Y176236D01*
Y175732D01*
X516702Y175717D01*
X516027Y175628D01*
X515114Y175249D01*
X514329Y174647D01*
X513727Y173863D01*
X513349Y172949D01*
X513219Y171969D01*
X513349Y170988D01*
X513727Y170074D01*
X514329Y169290D01*
X515114Y168688D01*
X516027Y168309D01*
X516702Y168221D01*
X516820Y168205D01*
Y167701D01*
X516702Y167685D01*
X516027Y167596D01*
X515114Y167218D01*
X514329Y166616D01*
X513727Y165831D01*
X513349Y164918D01*
X513219Y163937D01*
X513349Y162957D01*
X513727Y162043D01*
X514329Y161258D01*
X515114Y160656D01*
X516027Y160278D01*
X516702Y160189D01*
X516820Y160173D01*
Y159669D01*
X516702Y159654D01*
X516027Y159565D01*
X515114Y159186D01*
X514329Y158584D01*
X513727Y157800D01*
X513349Y156886D01*
X513219Y155906D01*
X513349Y154925D01*
X513727Y154011D01*
X514329Y153227D01*
X515114Y152625D01*
X516027Y152246D01*
X517008Y152117D01*
X517988Y152246D01*
X518902Y152625D01*
X519687Y153227D01*
X520289Y154011D01*
X520667Y154925D01*
X520796Y155906D01*
X520667Y156886D01*
X520289Y157800D01*
X519687Y158584D01*
X518902Y159186D01*
X517988Y159565D01*
X517313Y159654D01*
X517196Y159669D01*
Y160173D01*
X517313Y160189D01*
X517988Y160278D01*
X518902Y160656D01*
X519687Y161258D01*
X520289Y162043D01*
X520667Y162957D01*
X520796Y163937D01*
X520667Y164918D01*
X520289Y165831D01*
X519687Y166616D01*
X518902Y167218D01*
X517988Y167596D01*
X517314Y167685D01*
X517195Y167701D01*
Y168205D01*
X517314Y168221D01*
X517988Y168309D01*
X518902Y168688D01*
X519687Y169290D01*
X520289Y170074D01*
X520667Y170988D01*
X520796Y171969D01*
X520667Y172949D01*
X520289Y173863D01*
X519687Y174647D01*
X518902Y175249D01*
X517988Y175628D01*
X517313Y175717D01*
X517196Y175732D01*
Y176236D01*
X517313Y176252D01*
X517988Y176341D01*
X518902Y176719D01*
X519687Y177321D01*
X520256Y178063D01*
X537198D01*
X540063Y175198D01*
Y156000D01*
X540210Y155259D01*
X540630Y154630D01*
X545315Y149945D01*
X545944Y149525D01*
X546685Y149378D01*
X550459D01*
X550688Y148825D01*
X551479Y147794D01*
X552510Y147002D01*
X553063Y146774D01*
Y129000D01*
X553210Y128259D01*
X553630Y127630D01*
X560630Y120630D01*
X561259Y120210D01*
X562000Y120063D01*
X619000D01*
X619741Y120210D01*
X620370Y120630D01*
X627370Y127630D01*
X627790Y128259D01*
X627937Y129000D01*
Y160283D01*
X627790Y161025D01*
X627370Y161653D01*
X623716Y165307D01*
X623088Y165727D01*
X622346Y165874D01*
X619925D01*
X619496Y166433D01*
X618765Y166994D01*
X617914Y167347D01*
X617000Y167467D01*
X616086Y167347D01*
X615235Y166994D01*
X614504Y166433D01*
X614075Y165874D01*
X603248D01*
X602679Y166616D01*
X601894Y167218D01*
X600981Y167596D01*
X600306Y167685D01*
X600187Y167701D01*
Y168205D01*
X600306Y168221D01*
X600981Y168309D01*
X601894Y168688D01*
X602679Y169290D01*
X603272Y170063D01*
X619358D01*
X619787Y169504D01*
X620518Y168943D01*
X621370Y168590D01*
X622283Y168470D01*
X623197Y168590D01*
X624049Y168943D01*
X624780Y169504D01*
X625341Y170235D01*
X625693Y171086D01*
X625814Y172000D01*
X625693Y172914D01*
X625341Y173765D01*
X624780Y174496D01*
X624049Y175057D01*
X623197Y175410D01*
X622283Y175530D01*
X621370Y175410D01*
X620518Y175057D01*
X619787Y174496D01*
X619358Y173937D01*
X603224D01*
X602679Y174647D01*
X601894Y175249D01*
X600981Y175628D01*
X600306Y175717D01*
X600188Y175732D01*
Y176236D01*
X600306Y176252D01*
X600981Y176341D01*
X601894Y176719D01*
X602679Y177321D01*
X603248Y178063D01*
X624075D01*
X624504Y177504D01*
X625235Y176943D01*
X626086Y176590D01*
X627000Y176470D01*
X627914Y176590D01*
X628765Y176943D01*
X629496Y177504D01*
X630057Y178235D01*
X630410Y179086D01*
X630530Y180000D01*
X630410Y180914D01*
X630057Y181765D01*
X629496Y182496D01*
X628765Y183057D01*
X627914Y183410D01*
X627000Y183530D01*
X626086Y183410D01*
X625235Y183057D01*
X624504Y182496D01*
X624075Y181937D01*
X603248D01*
X602679Y182679D01*
X601937Y183248D01*
Y186000D01*
X601790Y186741D01*
X601370Y187370D01*
X595370Y193370D01*
X594741Y193790D01*
X594000Y193937D01*
D02*
G37*
%LPD*%
D16*
X622346Y163937D02*
X626000Y160283D01*
Y129000D02*
Y160283D01*
X619000Y122000D02*
X626000Y129000D01*
X562000Y122000D02*
X619000D01*
X555000Y129000D02*
X562000Y122000D01*
X555000Y129000D02*
Y151315D01*
X610000Y201000D02*
X614000Y205000D01*
X507000Y201000D02*
X610000D01*
X502000Y206000D02*
X507000Y201000D01*
X594000Y192000D02*
X600000Y186000D01*
X508000Y192000D02*
X594000D01*
X503000Y187000D02*
X508000Y192000D01*
X507079Y159921D02*
X510000D01*
X503000Y164000D02*
X507079Y159921D01*
X503000Y164000D02*
Y187000D01*
X600000Y180000D02*
Y186000D01*
X617000Y163937D02*
X622346D01*
X546685Y151315D02*
X555000D01*
X542000Y156000D02*
X546685Y151315D01*
X542000Y156000D02*
Y176000D01*
X538000Y180000D02*
X542000Y176000D01*
X517008Y180000D02*
X538000D01*
X564047Y167953D02*
X576000D01*
X561000Y171000D02*
X564047Y167953D01*
X555000Y171000D02*
X561000D01*
X555000D02*
Y184000D01*
X552000Y187000D02*
X555000Y184000D01*
X512000Y187000D02*
X552000D01*
X510000Y185000D02*
X512000Y187000D01*
X510000Y175984D02*
Y185000D01*
X502000Y206000D02*
Y220000D01*
X504638Y222638D02*
X510000D01*
X502000Y220000D02*
X504638Y222638D01*
X559000Y207000D02*
X596000D01*
X555000Y211000D02*
X559000Y207000D01*
X555000Y211000D02*
Y223032D01*
X596000Y207000D02*
X600000Y211000D01*
Y218622D01*
Y234685D02*
X610315D01*
X614000Y231000D01*
Y205000D02*
Y231000D01*
X584362Y222638D02*
X592992D01*
X580000Y227000D02*
X584362Y222638D01*
X580000Y227000D02*
Y254000D01*
X574000Y260000D02*
X580000Y254000D01*
X534000Y260000D02*
X574000D01*
X530000Y256000D02*
X534000Y260000D01*
X530000Y238000D02*
Y256000D01*
X526685Y234685D02*
X530000Y238000D01*
X517008Y234685D02*
X526685D01*
X577394Y214606D02*
X592992D01*
X574000Y218000D02*
X577394Y214606D01*
X574000Y218000D02*
Y237000D01*
X568283Y242717D02*
X574000Y237000D01*
X555000Y242717D02*
X568283D01*
X592354Y160559D02*
X592992Y159921D01*
X580362Y160559D02*
X592354D01*
X576000Y167953D02*
X592331D01*
X592662Y168283D01*
X592992Y167953D01*
X571000Y176000D02*
X592976D01*
X592992Y175984D01*
X600000Y163937D02*
X617000D01*
X600000Y171969D02*
X600031Y172000D01*
X622283D01*
X600000Y180000D02*
X627000D01*
D17*
X517008Y242717D02*
D03*
Y234685D02*
D03*
Y226654D02*
D03*
Y218622D02*
D03*
X510000Y238701D02*
D03*
Y214606D02*
D03*
Y222638D02*
D03*
Y230669D02*
D03*
Y167953D02*
D03*
Y159921D02*
D03*
Y151890D02*
D03*
Y175984D02*
D03*
X517008Y155906D02*
D03*
Y163937D02*
D03*
Y171969D02*
D03*
Y180000D02*
D03*
X592992Y151890D02*
D03*
Y159921D02*
D03*
Y167953D02*
D03*
Y175984D02*
D03*
X600000Y155906D02*
D03*
Y180000D02*
D03*
Y171969D02*
D03*
Y163937D02*
D03*
Y226654D02*
D03*
Y234685D02*
D03*
Y242717D02*
D03*
Y218622D02*
D03*
X592992Y238701D02*
D03*
Y230669D02*
D03*
Y222638D02*
D03*
Y214606D02*
D03*
D18*
X513465Y260295D02*
D03*
Y134311D02*
D03*
X596535D02*
D03*
Y260295D02*
D03*
D19*
X499449Y253406D02*
D03*
Y141201D02*
D03*
X610551D02*
D03*
Y253406D02*
D03*
D20*
X555000Y223032D02*
D03*
Y242717D02*
D03*
Y151315D02*
D03*
Y171000D02*
D03*
D21*
X580362Y160559D02*
D03*
X576000Y167953D02*
D03*
X571000Y176000D02*
D03*
X617000Y163937D02*
D03*
X622283Y172000D02*
D03*
X627000Y180000D02*
D03*
M02*
