G04*
G04 #@! TF.GenerationSoftware,Altium Limited,Altium Designer,18.1.9 (240)*
G04*
G04 Layer_Color=2752767*
%FSLAX25Y25*%
%MOIN*%
G70*
G01*
G75*
%ADD22C,0.00200*%
%ADD23C,0.00267*%
D22*
X516208Y241917D02*
Y243517D01*
X517808D01*
Y241917D01*
X516208D01*
Y233885D02*
Y235485D01*
X517808D01*
Y233885D01*
X516208D01*
Y225854D02*
Y227454D01*
X517808D01*
Y225854D01*
X516208D01*
Y217822D02*
Y219422D01*
X517808D01*
Y217822D01*
X516208D01*
X509200Y237901D02*
Y239501D01*
X510800D01*
Y237901D01*
X509200D01*
Y213806D02*
Y215406D01*
X510800D01*
Y213806D01*
X509200D01*
Y221838D02*
Y223438D01*
X510800D01*
Y221838D01*
X509200D01*
Y229869D02*
Y231469D01*
X510800D01*
Y229869D01*
X509200D01*
X499449Y252606D02*
X498649Y254206D01*
X500249D01*
X499449Y252606D01*
Y140401D02*
X498649Y142001D01*
X500249D01*
X499449Y140401D01*
X509200Y167153D02*
Y168753D01*
X510800D01*
Y167153D01*
X509200D01*
Y159121D02*
Y160721D01*
X510800D01*
Y159121D01*
X509200D01*
Y151090D02*
Y152690D01*
X510800D01*
Y151090D01*
X509200D01*
Y175184D02*
Y176784D01*
X510800D01*
Y175184D01*
X509200D01*
X516208Y155106D02*
Y156706D01*
X517808D01*
Y155106D01*
X516208D01*
Y163137D02*
Y164737D01*
X517808D01*
Y163137D01*
X516208D01*
Y171169D02*
Y172769D01*
X517808D01*
Y171169D01*
X516208D01*
Y179200D02*
Y180800D01*
X517808D01*
Y179200D01*
X516208D01*
X555000Y222232D02*
X555400Y222632D01*
X555800D01*
X555400Y223032D01*
X555800Y223432D01*
X555400D01*
X555000Y223832D01*
X554600Y223432D01*
X554200D01*
X554600Y223032D01*
X554200Y222632D01*
X554600D01*
X555000Y222232D01*
Y241917D02*
X555400Y242317D01*
X555800D01*
X555400Y242717D01*
X555800Y243117D01*
X555400D01*
X555000Y243517D01*
X554600Y243117D01*
X554200D01*
X554600Y242717D01*
X554200Y242317D01*
X554600D01*
X555000Y241917D01*
X592192Y151090D02*
Y152690D01*
X593792D01*
Y151090D01*
X592192D01*
Y159121D02*
Y160721D01*
X593792D01*
Y159121D01*
X592192D01*
Y167153D02*
Y168753D01*
X593792D01*
Y167153D01*
X592192D01*
Y175184D02*
Y176784D01*
X593792D01*
Y175184D01*
X592192D01*
X599200Y155106D02*
Y156706D01*
X600800D01*
Y155106D01*
X599200D01*
Y179200D02*
Y180800D01*
X600800D01*
Y179200D01*
X599200D01*
Y171169D02*
Y172769D01*
X600800D01*
Y171169D01*
X599200D01*
Y163137D02*
Y164737D01*
X600800D01*
Y163137D01*
X599200D01*
X610551Y140401D02*
X609751Y142001D01*
X611351D01*
X610551Y140401D01*
Y252606D02*
X609751Y254206D01*
X611351D01*
X610551Y252606D01*
X599200Y225854D02*
Y227454D01*
X600800D01*
Y225854D01*
X599200D01*
Y233885D02*
Y235485D01*
X600800D01*
Y233885D01*
X599200D01*
Y241917D02*
Y243517D01*
X600800D01*
Y241917D01*
X599200D01*
Y217822D02*
Y219422D01*
X600800D01*
Y217822D01*
X599200D01*
X592192Y237901D02*
Y239501D01*
X593792D01*
Y237901D01*
X592192D01*
Y229869D02*
Y231469D01*
X593792D01*
Y229869D01*
X592192D01*
Y221838D02*
Y223438D01*
X593792D01*
Y221838D01*
X592192D01*
Y213806D02*
Y215406D01*
X593792D01*
Y213806D01*
X592192D01*
X555000Y150515D02*
X555400Y150915D01*
X555800D01*
X555400Y151315D01*
X555800Y151715D01*
X555400D01*
X555000Y152115D01*
X554600Y151715D01*
X554200D01*
X554600Y151315D01*
X554200Y150915D01*
X554600D01*
X555000Y150515D01*
Y170200D02*
X555400Y170600D01*
X555800D01*
X555400Y171000D01*
X555800Y171400D01*
X555400D01*
X555000Y171800D01*
X554600Y171400D01*
X554200D01*
X554600Y171000D01*
X554200Y170600D01*
X554600D01*
X555000Y170200D01*
X579562Y159759D02*
X579962Y160559D01*
X579562Y161359D01*
X580362Y160959D01*
X581162Y161359D01*
X580762Y160559D01*
X581162Y159759D01*
X580362Y160159D01*
X579562Y159759D01*
X575200Y167153D02*
X575600Y167953D01*
X575200Y168753D01*
X576000Y168353D01*
X576800Y168753D01*
X576400Y167953D01*
X576800Y167153D01*
X576000Y167553D01*
X575200Y167153D01*
X570200Y175200D02*
X570600Y176000D01*
X570200Y176800D01*
X571000Y176400D01*
X571800Y176800D01*
X571400Y176000D01*
X571800Y175200D01*
X571000Y175600D01*
X570200Y175200D01*
X616200Y163137D02*
X616600Y163937D01*
X616200Y164737D01*
X617000Y164337D01*
X617800Y164737D01*
X617400Y163937D01*
X617800Y163137D01*
X617000Y163537D01*
X616200Y163137D01*
X621483Y171200D02*
X621883Y172000D01*
X621483Y172800D01*
X622283Y172400D01*
X623083Y172800D01*
X622683Y172000D01*
X623083Y171200D01*
X622283Y171600D01*
X621483Y171200D01*
X626200Y179200D02*
X626600Y180000D01*
X626200Y180800D01*
X627000Y180400D01*
X627800Y180800D01*
X627400Y180000D01*
X627800Y179200D01*
X627000Y179600D01*
X626200Y179200D01*
D23*
X514265Y260295D02*
X513712Y261056D01*
X512817Y260765D01*
Y259825D01*
X513712Y259534D01*
X514265Y260295D01*
Y134311D02*
X513712Y135072D01*
X512817Y134781D01*
Y133841D01*
X513712Y133550D01*
X514265Y134311D01*
X597335D02*
X596783Y135072D01*
X595888Y134781D01*
Y133841D01*
X596783Y133550D01*
X597335Y134311D01*
Y260295D02*
X596783Y261056D01*
X595888Y260765D01*
Y259825D01*
X596783Y259534D01*
X597335Y260295D01*
M02*
